<?xml version="1.0" encoding="utf-8"?>
<!-- Generator: Adobe Illustrator 18.0.0, SVG Export Plug-In . SVG Version: 6.00 Build 0)  -->
<!DOCTYPE svg PUBLIC "-//W3C//DTD SVG 1.1//EN" "http://www.w3.org/Graphics/SVG/1.1/DTD/svg11.dtd">
<svg version="1.1" id="Слой_2" xmlns="http://www.w3.org/2000/svg" xmlns:xlink="http://www.w3.org/1999/xlink" x="0px" y="0px"
	 viewBox="416 0 757 1200" enable-background="new 416 0 757 1200" xml:space="preserve">
<path fill="#000000"    d="M1157.9,513.7c-2.9-10.7-3.9-22.6-10.8-31.6
	c-3.2-4.2-6.7-6.3-8.1-11.6c-1.6-6.1-2.6-29-4.1-34.5c-1.4-4.9-8.6-13-11.6-16.9c-7.9-10.2-10.8-20.7-15.8-32
	c-4.9-11.1-7.4-19.5-9.6-31.4c-2.2-11.5-5.3-25.3-10-36.1c-2.2-5.1-7-8.1-9.1-13.2c-2-4.8-4.3-11.9-4.6-17c-0.4-6.4,6.9-10.8,6.2-17
	c-0.4-3.9-2.4-10.1-4.4-13.6c-27.7-48.2-64-63.9-73.7-69.5c-8.4-4.9-22.4-11.9-32.2-11.7l-3.9,1.5c0-8.1-1.2-15.7-3.1-23.1
	c-1.9-7.3,0.3-16.1,0.9-23.8c5.2-0.5,12.2-0.8,16.7-3.4c-5.7-8.2-15.5-11-20.9-19.7c-2.9-4.7-3-11.2-5.2-16.4
	C914-5.7,795.5,36.8,792.8,106.6c-0.4,10.5-1.9,20.7-4.7,30.7c-2.7,0.6-4.9,1.5-7.5,2.6c-0.2,2.6,0.5,11.2,0.5,11.2s3.9-1.7,7.8-0.5
	c0.4,4.3,0.1,8.7,0.1,13c0,3.9-1.8,8.8-0.1,12.2c-4.3-2.9-11.3-1.1-15.3,1.7c-2,1.4-2.7,1.8-5.2,2.5s-4.3,0.5-7.2,0.5
	c-3.4,0.1-10,5-13.2,6.8c-5.1,2.7-9.4,7.5-12,12.7s-18.9,26.9-12.3,50.7c1.5,5.3,0.1,12.6,2.3,17.6c4.5,10.4,11.4,20.7,17.4,30.3
	c3.3,5.2,15.4,22.9,17.9,27c2.3,3.8,4.9,11.5,3.9,16.2c-0.9,4.2-8.3,6-12.3,7.7c-1.1,0.5-2.2,0.9-3.4,1.4
	c-25.9-33.4-50.9-65.9-61.4-80.3C662.5,235.7,567.8,102.9,531.5,69s-68.6-57.8-89.4-65.5c-20.8-7.7-23.1,21.6-19.2,20.8
	c3.6-0.7,257.8,301.5,295.2,346c-5.9,6-10.9,13-12.4,20.9c-1.5,7.8,3.6,24.6,14.5,24c0.5,6.1,1,17.1,10,16.2
	c-0.3,3.6,2.7,11.5,6.7,12.5c-1.2,5.2-6.7,8.7-5,14.4c1.6,5.5,8.8,5.3,13.9,3.9c3.6-1,6.5-3.3,9.1-6c0.2,0.9,0.5,1.8,1.1,2.7
	c2.8,5,9.1,4.5,12.8,7.3c-1,3.1-3.3,3.9-3.7,7.5c-0.4,3.2,0.4,6.9,2.1,9.5c4.2,6.2,11.1,4.1,17.1,3.8c-2.7,4.6,0.8,9.6,3.7,13.2
	c4.1,5.1,8,4,14,4.5c-0.1,7,9.2,17.9,17,16c10.5-6.1,6.2-8.2,1.8-9c4.7,0,7.3-3.9,11.1-5.1l21,25.2c-7.9,11.7-20,28.7-21.4,37.6
	c-1.1,6.7,0.9,10.2,3.6,16.2c2.8,6.3,5.4,7.8,11.6,10.1c1.3,13.2-0.2,22.1-4.3,34c-4.5,13-9.6,26-13.9,39.1
	c-4.2,13-5.6,25.5-5.6,39.3c0,12.3-4.9,25.6-7.9,37.6c-1.4,5.8-3.5,11.8-4.4,17.9c-0.8,5.8-1.1,11.5-1.7,17.6
	c-4.8-1.1-9.7-4.5-14.5-6.1c-5.7-1.9-11.6-4.3-16.8-7.1c-5.6-3-9.7-4.3-15.6-6.2c-2.5-0.8-4.1-2.6-6.8-3.1c-4-0.8-3.7,1-7.1,2.7
	c-1.7,0.8-2.8,1.6-4.7,1.2c-1.3-0.2-1.3-3.4-3.1-3.1c-2.6,0.5-2,6.7-2.3,8.6c-0.9,5.9-1.5,12.6,0.2,18.3c1.8,6.4,3.8,11.8,4.4,18.7
	c0.6,5.8,3.1,11.8,3.7,17.7c0.4,4.1-1.3,8.6-0.4,13.1c0.7,3.7,2.1,9,3.6,12.2c-0.4,0.1-0.9,0.2-1.3,0.3c-0.5,6,1.4,11.7,3.5,17
	c2.2,5.5,3.1,11,5,16.6c1.9,5.4,5.3,9.9,6.7,15.6c1.5,5.8,2.3,12.9,4.5,17.9c2.5,5.9,12.6,10.4,12.6,10.4s3.9,11.1,5.6,16.2
	c3.5,10.6,7.8,22.8,13.7,32.5c4.1,6.8,6.9,13.7,10.2,20.6c1.6,3.3,19.8,41.5,22.2,46.4c1.8,3.8,2.9,9.6,3.7,13.9
	c0.8,4.7,13.3,28.8,13.3,38.5c0,9.5,2.8,16.8,6.8,25.2c-3.2,3.4-8.1,3.3-12,5c-3.7,1.6-7.2,4.3-10.8,6.2c-7.6,4-15.8,8.2-23.9,10.7
	c-18.6,5.8-50.3,11.5-45.5,39c2.2,12.5,54.6,12.9,66.9,13.9c12.5,1,23.6,1.4,36.2,0.2c6.3-0.6,12.6-0.8,18.5-3.2
	c5.8-2.5,10.8-3.6,17-2.2c6.5,1.5,12.5,3.9,19.3,3.9c6.5,0,48.6-0.8,56.1-4.7c0.9-11.2-0.4-22.4-2.9-33c7.3,3.5,15.4,5.5,23.1,6.8
	c5.4,0.9,9.6,3.3,9.4,8.8c-0.1,3.5-1.9,4.1,1.4,6.7c21.6,17.7,64.4,16.1,66.3,15.5c1.6-0.5,3.8-3.8,4.8-5.3c4-5.5,5.8-10.3,6-17.2
	c0.1-6.7-4.6-14.6-4.6-14.6l10-40.4c0,0,6.1-1.3,10-5.9c4.8-5.5,4.6-9.5,4.6-16.9c0-13.9-0.1-27.8-0.8-41.6c-0.6-12.8,0-25.7,0-38.5
	c0-6.5-0.1-13,0.9-19.1c0.8-4.4,2.9-14,0.7-18.1c2.2-5.6,4.3-11.8,6.2-17.5c8-23.8,10-49.1,11.9-74.3c1-12.8-0.6-26,0.3-38.8
	c0.9-11.5,3.8-23.5,3.6-35.4c1.1,1.4,2.8,1.7,4.5,1.1c3.7-9.3,3.3-20.8,5.6-30.7c2.8-12.3,4.9-24.6,6.9-37
	c1.9-11.9,3.7-35.3,3.7-35.3s-9.1-8.7-3.7-33.3c0.7-3.4,11.1-69.2,10.8-87.9c-0.1-9.4-0.1-19,0.8-28.5c0.8-8.8,9.7-21.2,9.4-20.7
	C1170.4,530.7,1159.5,519.6,1157.9,513.7z M800.3,408c3.7-4.6,5.6-10.3,8.7-15.3c4-6.4,9.4-11,10.8-18.5c0.8-4.2,1.1-8.7,0.8-13.1
	c-0.2-2.7,0-9.9-1.6-12c8.2,11.1,15.1,25,19.5,38.1c2.2,6.6,3.1,13.7,4.6,20.8c1.4,6.6,4.3,15.5,3.6,22.4
	c-6.4,0.6-10.7,0.3-16.8-0.7c-5.3-0.8-10.6-0.8-14.8-4.4c-3.8-3.3-7.2-10.4-13.1-7.3c-0.1,0-0.2,0.1-0.3,0.2c-1.6-2-3.2-4.1-4.9-6.3
	C798,410.5,799.2,409.3,800.3,408z M993.9,1030.8c-0.5,6.2-0.7,43-4.8,54c-2.8,7.4-9.3,3.1-15.2,6c-0.2,0.1-0.5,0.2-0.7,0.3
	c-1.1-3.2-2.5-6.3-3.9-9.4c-2.1-4.5-5.1-10.4-9.1-13.2c-2.4-1.7-5.5-1.7-7.3-4.2c-1.4-2-1.6-5.6-2.1-8c-0.9-4.7-2.3-13.1,0.2-17.5
	c2.6-4.7,9.7-9.8,14.9-9.4c-2.2-6.3-2-13.3-0.6-20c-8.5-0.9-18.2,7.7-19.3,16c-5.7-8.7-5.9-23-6.9-33.7c-1-11.2-4.1-22.5-7.7-33.1
	c-0.9-2.8-3.9-14.4-4.5-17.1c-1.4-6.1-3.2-11.8-4.6-17.8c-1-4-5.5-33.8-11.6-31.1c0.2-7.2-6.8-12.6-10.7-18c2.7-2,7.6-3.3,10.7-4.1
	c6.7-1.7,10.9-1.8,15.2-8.4c3.3-5.1,5.8-10.7,8.5-16.2c5.4-10.8,9.2-23.1,12.3-34.7c3.5-12.7,6.4-25.7,10.3-38.5
	c1.8-6.1,3.3-12.6,4.7-18.5c1.2-5,2.2-12,5.4-16.1c4.5,5.6,6.2,16.7,7.5,23.8c1.4,7.9,2.6,16,3.9,23.9c0.8,4.6,1.9,9.2,2.3,13.9
	c0.4,4.5-0.4,8.1,1.5,11.6c0.4,0.7,1.8,1.2,2.4,2.3c0.4,0.7-0.2,2.3-0.1,3.1c0.3,2.1,0.6,4,0.8,6.2c0.3,2.8,0.6,8.5,3.7,9.4
	c0.8,3.8-0.6,8.9-0.6,13c0,3.9,0,7.7,0,11.6c0,8.3,0.8,16.2,0.8,24.6c0,17.2,0.1,34.8,1.5,51.8c1.1,12.8,0.5,26.6,0.8,39.9
	c0.3,13.3,3.1,26,3.1,39.3C994.7,1018.6,994.4,1025,993.9,1030.8z"/>
<polygon fill="#000000"    points="648.1,611.2 648.1,604.8 623.2,604.8 
	623.2,598.6 590.3,598.6 590.3,604.8 553.8,604.8 553.8,598.6 520.9,598.6 520.9,604.8 498.4,604.8 498.4,611.2 488.5,611.2 
	488.5,1164.9 517.4,1164.9 517.4,614.7 520.9,614.7 520.9,621 553.8,621 553.8,614.7 557.9,614.7 557.9,1164.9 586.8,1164.9 
	586.8,614.7 590.3,614.7 590.3,621 623.2,621 623.2,614.7 627.3,614.7 627.3,1164.9 656.2,1164.9 656.2,611.2 "/>
</svg>
